<?xml version="1.0" encoding="utf-8"?>
<!-- Generator: Adobe Illustrator 18.0.0, SVG Export Plug-In . SVG Version: 6.00 Build 0)  -->
<!DOCTYPE svg PUBLIC "-//W3C//DTD SVG 1.1//EN" "http://www.w3.org/Graphics/SVG/1.1/DTD/svg11.dtd">
<svg version="1.1" id="图层_1" xmlns="http://www.w3.org/2000/svg" xmlns:xlink="http://www.w3.org/1999/xlink" x="0px" y="0px"
	 viewBox="0 0 103.6 60.7" enable-background="new 0 0 103.6 60.7" xml:space="preserve">
<g>
	<path opacity="0.95" fill="#FFFFFF" d="M80.8,39.6C78.3,28,66.4,27.4,62.5,25.7c-0.5-0.9-2.8-6.1-8.9-11.4c-5.4-3.8-13-4-16.5-3.9
		c-9.4,1.9-16.7,9.7-17.8,19.4c-1.1-0.3-2.3-0.4-3.5-0.4C7,29.4,0,36.5,0,45.2c0,7.9,5.8,14.5,13.4,15.6h45.9c4.6,0,3.1,0,4.6,0
		c4.2,0,8.1-1.5,11.1-4C76.9,54.9,83.3,49.3,80.8,39.6z M51.3,32.1l-3.2,3.2l-3.2-3.2l3.2-3.2L51.3,32.1z M42,22.8l3.2,3.2L42,29.3
		l-3.2-3.2L42,22.8z M35.9,28.9l3.2,3.2l-3.2,3.2l-3.2-3.2L35.9,28.9z M26.6,38.2l3.2-3.2l3.2,3.2l-3.2,3.2L26.6,38.2z M32.7,44.3
		l3.2-3.2l3.2,3.2l-3.2,3.2L32.7,44.3z M42,53.7l-3.2-3.2l3.2-3.2l3.2,3.2L42,53.7z M48.1,47.6l-3.2-3.2l3.2-3.2l3.2,3.2L48.1,47.6z
		 M54.2,41.5l-3.2-3.2l3.2-3.2l3.2,3.2L54.2,41.5z"/>
	<path opacity="0.95" fill="#FFFFFF" d="M85.4,20.5c-0.9,0-1.7,0.1-2.5,0.2C81.5,9,71.6,0,59.6,0C53,0,47,2.7,42.7,7.2
		c4.1,0.2,9.4,1.1,12.2,2.8c7.6,4.7,9.2,10.1,11.6,13.3c4.1,0.8,13.4,2.4,17.5,12.5c3.1,10.4-1,16.1-2.3,18.9c2.4,0,0.2,0,2.4,0
		c14,0,19.6-6,19.6-16S95.5,20.5,85.4,20.5z"/>
</g>
</svg>
