<?xml version="1.0" encoding="utf-8"?>
<!-- Generator: Adobe Illustrator 18.0.0, SVG Export Plug-In . SVG Version: 6.00 Build 0)  -->
<!DOCTYPE svg PUBLIC "-//W3C//DTD SVG 1.1//EN" "http://www.w3.org/Graphics/SVG/1.1/DTD/svg11.dtd">
<svg version="1.1" id="图层_1" xmlns="http://www.w3.org/2000/svg" xmlns:xlink="http://www.w3.org/1999/xlink" x="0px" y="0px"
	 viewBox="0 0 58.9 70.1" enable-background="new 0 0 58.9 70.1" xml:space="preserve">
<g>
	<g>
		<path fill="#FFFFFF" d="M31.1,23.9c27.8-1,27.8-11.9,27.8-11.9C58.9,5.3,45.7,0,29.6,0S0.2,5.3,0.2,11.9
			C0.2,11.9,1,23.9,31.1,23.9z"/>
		<path fill="#FFFFFF" d="M31.2,50c-20.7,0.4-30.9-8-30.9-8v18.1c0,0,6.2,10.6,30.4,10.1c27-1.1,28.2-10.4,28.2-10.4V42.1
			C58.8,42.2,51.6,50.2,31.2,50z"/>
		<path fill="#FFFFFF" d="M31.1,47.3c26.4-1.8,27.7-10.2,27.8-10.6V18.7c0,0-7.2,8.1-27.7,7.9c-17.7,1.1-30.8-7.3-30.9-7.4v16.9
			C0.3,36.6,1.6,46.5,31.1,47.3z"/>
		<line fill="#FFFFFF" x1="58.9" y1="42.1" x2="58.9" y2="42.1"/>
		<path fill="#FFFFFF" d="M58.9,36.7C58.9,36.7,58.9,36.7,58.9,36.7"/>
	</g>
</g>
</svg>
