<?xml version="1.0" encoding="utf-8"?>
<!-- Generator: Adobe Illustrator 18.0.0, SVG Export Plug-In . SVG Version: 6.00 Build 0)  -->
<!DOCTYPE svg PUBLIC "-//W3C//DTD SVG 1.1//EN" "http://www.w3.org/Graphics/SVG/1.1/DTD/svg11.dtd">
<svg version="1.1" id="图层_1" xmlns="http://www.w3.org/2000/svg" xmlns:xlink="http://www.w3.org/1999/xlink" x="0px" y="0px"
	 viewBox="0 0 58.9 70.1" enable-background="new 0 0 58.9 70.1" xml:space="preserve">
<g>
	<path fill="#DEB739" d="M31,23.9c27.8-1,27.8-11.9,27.8-11.9C58.8,5.3,45.6,0,29.4,0S0.1,5.3,0.1,11.9C0.1,11.9,0.9,23.9,31,23.9z"
		/>
	<path fill="#27853D" d="M31,50c-20.7,0.4-30.9-8-30.9-8v18.1c0,0,6.2,10.6,30.4,10.1c27-1.1,28.2-10.4,28.2-10.4V42.1
		C58.7,42.2,51.5,50.2,31,50z"/>
	<path fill="#27853D" d="M31,47.3c26.4-1.8,27.7-10.2,27.8-10.6V18.7c0,0-7.2,8.1-27.7,7.9c-17.7,1.1-30.8-7.3-30.9-7.4v16.9
		C0.2,36.6,1.5,46.5,31,47.3z"/>
</g>
</svg>
