<?xml version="1.0" encoding="utf-8"?>
<!-- Generator: Adobe Illustrator 18.0.0, SVG Export Plug-In . SVG Version: 6.00 Build 0)  -->
<!DOCTYPE svg PUBLIC "-//W3C//DTD SVG 1.1//EN" "http://www.w3.org/Graphics/SVG/1.1/DTD/svg11.dtd">
<svg version="1.1" id="图层_1" xmlns="http://www.w3.org/2000/svg" xmlns:xlink="http://www.w3.org/1999/xlink" x="0px" y="0px"
	 viewBox="0 0 69.4 69.9" enable-background="new 0 0 69.4 69.9" xml:space="preserve">
<g>
	<g>
		<path fill="#FFFFFF" d="M20.9,14.7h-0.3c-1,0-1.9-0.8-1.9-1.9V1.9c0-1,0.8-1.9,1.9-1.9l0.3,0c1,0,1.9,0.8,1.9,1.9v10.9
			C22.8,13.8,21.9,14.7,20.9,14.7z"/>
		<path fill="#FFFFFF" d="M30,14.7h-0.3c-1,0-1.9-0.8-1.9-1.9V1.9c0-1,0.8-1.9,1.9-1.9L30,0c1,0,1.9,0.8,1.9,1.9v10.9
			C31.9,13.8,31,14.7,30,14.7z"/>
		<path fill="#FFFFFF" d="M39.1,14.7h-0.3c-1,0-1.9-0.8-1.9-1.9V1.9c0-1,0.8-1.9,1.9-1.9l0.3,0c1,0,1.9,0.8,1.9,1.9v10.9
			C41,13.8,40.2,14.7,39.1,14.7z"/>
		<path fill="#FFFFFF" d="M48.2,14.7H48c-1,0-1.9-0.8-1.9-1.9V1.9c0-1,0.8-1.9,1.9-1.9l0.3,0c1,0,1.9,0.8,1.9,1.9v10.9
			C50.1,13.8,49.3,14.7,48.2,14.7z"/>
	</g>
	<g>
		<path fill="#FFFFFF" d="M20.9,69.9h-0.3c-1,0-1.9-0.8-1.9-1.9V57.1c0-1,0.8-1.9,1.9-1.9h0.3c1,0,1.9,0.8,1.9,1.9V68
			C22.8,69,21.9,69.9,20.9,69.9z"/>
		<path fill="#FFFFFF" d="M30,69.9h-0.3c-1,0-1.9-0.8-1.9-1.9V57.1c0-1,0.8-1.9,1.9-1.9H30c1,0,1.9,0.8,1.9,1.9V68
			C31.9,69,31,69.9,30,69.9z"/>
		<path fill="#FFFFFF" d="M39.1,69.9h-0.3c-1,0-1.9-0.8-1.9-1.9V57.1c0-1,0.8-1.9,1.9-1.9h0.3c1,0,1.9,0.8,1.9,1.9V68
			C41,69,40.2,69.9,39.1,69.9z"/>
		<path fill="#FFFFFF" d="M48.2,69.9H48c-1,0-1.9-0.8-1.9-1.9V57.1c0-1,0.8-1.9,1.9-1.9h0.3c1,0,1.9,0.8,1.9,1.9V68
			C50.1,69,49.3,69.9,48.2,69.9z"/>
	</g>
	<g>
		<path fill="#FFFFFF" d="M14.7,48.4v0.3c0,1-0.8,1.9-1.9,1.9H1.9c-1,0-1.9-0.8-1.9-1.9l0-0.3c0-1,0.8-1.9,1.9-1.9h10.9
			C13.8,46.5,14.7,47.4,14.7,48.4z"/>
		<path fill="#FFFFFF" d="M14.7,39.3v0.3c0,1-0.8,1.9-1.9,1.9H1.9c-1,0-1.9-0.8-1.9-1.9l0-0.3c0-1,0.8-1.9,1.9-1.9h10.9
			C13.8,37.4,14.7,38.3,14.7,39.3z"/>
		<path fill="#FFFFFF" d="M14.7,30.2v0.3c0,1-0.8,1.9-1.9,1.9H1.9c-1,0-1.9-0.8-1.9-1.9l0-0.3c0-1,0.8-1.9,1.9-1.9h10.9
			C13.8,28.3,14.7,29.2,14.7,30.2z"/>
		<path fill="#FFFFFF" d="M14.7,21.1v0.3c0,1-0.8,1.9-1.9,1.9H1.9c-1,0-1.9-0.8-1.9-1.9l0-0.3c0-1,0.8-1.9,1.9-1.9h10.9
			C13.8,19.2,14.7,20,14.7,21.1z"/>
	</g>
	<g>
		<path fill="#FFFFFF" d="M69.4,47.7V48c0,1-0.8,1.9-1.9,1.9H56.6c-1,0-1.9-0.8-1.9-1.9v-0.3c0-1,0.8-1.9,1.9-1.9h10.9
			C68.5,45.9,69.4,46.7,69.4,47.7z"/>
		<path fill="#FFFFFF" d="M69.4,38.6v0.3c0,1-0.8,1.9-1.9,1.9H56.6c-1,0-1.9-0.8-1.9-1.9v-0.3c0-1,0.8-1.9,1.9-1.9h10.9
			C68.5,36.7,69.4,37.6,69.4,38.6z"/>
		<path fill="#FFFFFF" d="M69.4,29.5v0.3c0,1-0.8,1.9-1.9,1.9H56.6c-1,0-1.9-0.8-1.9-1.9v-0.3c0-1,0.8-1.9,1.9-1.9h10.9
			C68.5,27.6,69.4,28.5,69.4,29.5z"/>
		<path fill="#FFFFFF" d="M69.4,20.4v0.3c0,1-0.8,1.9-1.9,1.9H56.6c-1,0-1.9-0.8-1.9-1.9v-0.3c0-1,0.8-1.9,1.9-1.9h10.9
			C68.5,18.5,69.4,19.4,69.4,20.4z"/>
	</g>
	<path fill="#FFFFFF" d="M51.4,53.9H18c-1.1,0-2-0.9-2-2v-34c0-1.1,0.9-2,2-2h33.4c1.1,0,2,0.9,2,2v34C53.4,53,52.5,53.9,51.4,53.9z
		"/>
</g>
</svg>
