<?xml version="1.0" encoding="utf-8"?>
<!-- Generator: Adobe Illustrator 18.0.0, SVG Export Plug-In . SVG Version: 6.00 Build 0)  -->
<!DOCTYPE svg PUBLIC "-//W3C//DTD SVG 1.1//EN" "http://www.w3.org/Graphics/SVG/1.1/DTD/svg11.dtd">
<svg version="1.1" id="图层_1" xmlns="http://www.w3.org/2000/svg" xmlns:xlink="http://www.w3.org/1999/xlink" x="0px" y="0px"
	 viewBox="0 0 664.1 369" enable-background="new 0 0 664.1 369" xml:space="preserve">
<g>
	<linearGradient id="SVGID_1_" gradientUnits="userSpaceOnUse" x1="2.2236" y1="45.3489" x2="67.9307" y2="45.3489">
		<stop  offset="0" style="stop-color:#EF8DA9"/>
		<stop  offset="1" style="stop-color:#E83F6D"/>
	</linearGradient>
	<path fill="url(#SVGID_1_)" d="M27.9,55.6L2.2,6.3H18l17.1,36l17-36h15.8L42.3,55.6v28.8H27.9V55.6z"/>
	<linearGradient id="SVGID_2_" gradientUnits="userSpaceOnUse" x1="74.8906" y1="46.2981" x2="128.0469" y2="46.2981">
		<stop  offset="0" style="stop-color:#786EB1"/>
		<stop  offset="1" style="stop-color:#704F9D"/>
	</linearGradient>
	<path fill="url(#SVGID_2_)" d="M89.3,6.3v49.3c0,6.3,0.6,16.7,12.2,16.7c11.5,0,12-10.4,12-16.7V6.3H128v48.7
		c0,22.1-12.2,31.2-26.6,31.2c-10.9,0-26.6-5.5-26.6-31.2V6.3H89.3z"/>
	<linearGradient id="SVGID_3_" gradientUnits="userSpaceOnUse" x1="142.3906" y1="45.3489" x2="206.0938" y2="45.3489">
		<stop  offset="0" style="stop-color:#9DD7EB"/>
		<stop  offset="1" style="stop-color:#B3DCCD"/>
	</linearGradient>
	<path fill="url(#SVGID_3_)" d="M142.4,6.3h14.4l34.8,52.7V6.3h14.4v78h-14.4l-34.8-52.7v52.7h-14.4V6.3z"/>
	<linearGradient id="SVGID_4_" gradientUnits="userSpaceOnUse" x1="220.4365" y1="45.3489" x2="258.7217" y2="45.3489">
		<stop  offset="0" style="stop-color:#A5D299"/>
		<stop  offset="1" style="stop-color:#B3DCCD"/>
	</linearGradient>
	<path fill="url(#SVGID_4_)" d="M220.4,6.3h14.4v64h23.8v14h-38.3V6.3z"/>
	<linearGradient id="SVGID_5_" gradientUnits="userSpaceOnUse" x1="267.1572" y1="45.3489" x2="281.6064" y2="45.3489">
		<stop  offset="0" style="stop-color:#EF8DA9"/>
		<stop  offset="1" style="stop-color:#E83F6D"/>
	</linearGradient>
	<path fill="url(#SVGID_5_)" d="M267.2,6.3h14.4v78h-14.4V6.3z"/>
	<linearGradient id="SVGID_6_" gradientUnits="userSpaceOnUse" x1="289.9385" y1="45.3489" x2="366.5088" y2="45.3489">
		<stop  offset="0" style="stop-color:#A9DBED"/>
		<stop  offset="0.5517" style="stop-color:#A5D299"/>
		<stop  offset="1" style="stop-color:#B3DCCD"/>
	</linearGradient>
	<path fill="url(#SVGID_6_)" d="M322.4,6.3H334l32.5,78h-15.9l-8-20.1h-28.7l-8,20.1h-15.9L322.4,6.3z M337.1,50.2l-8.9-22.8
		l-8.9,22.8H337.1z"/>
	<path fill="#F8C09B" d="M374.4,6.3h14.4l34.8,52.7V6.3h14.4v78h-14.4l-34.8-52.7v52.7h-14.4V6.3z"/>
	<linearGradient id="SVGID_7_" gradientUnits="userSpaceOnUse" x1="445.8184" y1="45.3489" x2="516.5879" y2="45.3489">
		<stop  offset="0" style="stop-color:#786EB1"/>
		<stop  offset="1" style="stop-color:#704F9D"/>
	</linearGradient>
	<path fill="url(#SVGID_7_)" d="M472.7,45.3l-26.9-39h16.9l18.5,27.1l18.6-27.1h16.9l-27,39l27,39h-16.9l-18.6-27l-18.5,27h-16.9
		L472.7,45.3z"/>
	<path fill="#7D94CB" d="M538.6,6.3v49.3c0,6.3,0.6,16.7,12.2,16.7c11.5,0,12-10.4,12-16.7V6.3h14.4v48.7
		c0,22.1-12.2,31.2-26.6,31.2c-10.9,0-26.6-5.5-26.6-31.2V6.3H538.6z"/>
	<linearGradient id="SVGID_8_" gradientUnits="userSpaceOnUse" x1="591.6807" y1="45.3489" x2="655.3838" y2="45.3489">
		<stop  offset="0" style="stop-color:#9DD7EB"/>
		<stop  offset="1" style="stop-color:#B3DCCD"/>
	</linearGradient>
	<path fill="url(#SVGID_8_)" d="M591.7,6.3h14.4l34.8,52.7V6.3h14.4v78h-14.4l-34.8-52.7v52.7h-14.4V6.3z"/>
</g>
<g>
	<path fill="#F8C09B" d="M2.9,114.3h14.4v78H2.9V114.3z"/>
	<linearGradient id="SVGID_9_" gradientUnits="userSpaceOnUse" x1="32.126" y1="153.3586" x2="95.8291" y2="153.3586">
		<stop  offset="0" style="stop-color:#9DD7EB"/>
		<stop  offset="1" style="stop-color:#B3DCCD"/>
	</linearGradient>
	<path fill="url(#SVGID_9_)" d="M32.1,114.3h14.4l34.8,52.7v-52.7h14.4v78H81.4l-34.8-52.7v52.7H32.1V114.3z"/>
	<linearGradient id="SVGID_10_" gradientUnits="userSpaceOnUse" x1="103.5264" y1="153.3586" x2="146.874" y2="153.3586">
		<stop  offset="0" style="stop-color:#786EB1"/>
		<stop  offset="1" style="stop-color:#704F9D"/>
	</linearGradient>
	<path fill="url(#SVGID_10_)" d="M118,128.4h-14.4v-14h43.3v14h-14.4v64H118V128.4z"/>
	<linearGradient id="SVGID_11_" gradientUnits="userSpaceOnUse" x1="154.4678" y1="153.3586" x2="196.3389" y2="153.3586">
		<stop  offset="0" style="stop-color:#EF8DA9"/>
		<stop  offset="1" style="stop-color:#E83F6D"/>
	</linearGradient>
	<path fill="url(#SVGID_11_)" d="M154.5,114.3h41.9v14h-27.4v18h26.3v14h-26.3v17.9h27.4v14h-41.9V114.3z"/>
	<path fill="#F8C09B" d="M209.3,114.3h14.4v64h23.8v14h-38.3V114.3z"/>
	<path fill="#EC6D71" d="M255.7,114.3h14.4v64H294v14h-38.3V114.3z"/>
	<linearGradient id="SVGID_12_" gradientUnits="userSpaceOnUse" x1="302.4365" y1="153.3586" x2="316.8857" y2="153.3586">
		<stop  offset="0" style="stop-color:#786EB1"/>
		<stop  offset="1" style="stop-color:#704F9D"/>
	</linearGradient>
	<path fill="url(#SVGID_12_)" d="M302.4,114.3h14.4v78h-14.4V114.3z"/>
	<path fill="#C793C0" d="M410.8,152.6c-0.2,18.6-11.6,41.7-41.4,41.7c-28.4,0-41.7-21.6-41.7-40.4s14.1-40.9,41.4-40.9
		c17.9,0,32,9.1,37.8,24.4h-17.3c-6-9.9-16.8-10.3-20.5-10.3c-18.2,0-27,14.1-27,26.4c0,13.3,9.7,26.9,27.6,26.9
		c9.5,0,18.6-4.3,22.8-14h-32.6v-13.6H410.8z"/>
	<linearGradient id="SVGID_13_" gradientUnits="userSpaceOnUse" x1="420.2441" y1="153.3586" x2="462.1152" y2="153.3586">
		<stop  offset="0" style="stop-color:#A5D299"/>
		<stop  offset="1" style="stop-color:#B3DCCD"/>
	</linearGradient>
	<path fill="url(#SVGID_13_)" d="M420.2,114.3h41.9v14h-27.4v18H461v14h-26.3v17.9h27.4v14h-41.9V114.3z"/>
	<path fill="#7D94CB" d="M475.1,114.3h14.4l34.8,52.7v-52.7h14.4v78h-14.4l-34.8-52.7v52.7h-14.4V114.3z"/>
	<linearGradient id="SVGID_14_" gradientUnits="userSpaceOnUse" x1="546.4873" y1="153.3586" x2="589.835" y2="153.3586">
		<stop  offset="0" style="stop-color:#9DD7EB"/>
		<stop  offset="1" style="stop-color:#B3DCCD"/>
	</linearGradient>
	<path fill="url(#SVGID_14_)" d="M560.9,128.4h-14.4v-14h43.3v14h-14.4v64h-14.4V128.4z"/>
</g>
<g>
	<linearGradient id="SVGID_15_" gradientUnits="userSpaceOnUse" x1="2.5957" y1="263.8582" x2="52.377" y2="263.8582">
		<stop  offset="0" style="stop-color:#A9DBED"/>
		<stop  offset="0.5517" style="stop-color:#A5D299"/>
		<stop  offset="1" style="stop-color:#B3DCCD"/>
	</linearGradient>
	<path fill="url(#SVGID_15_)" d="M2.6,224.8h21.8c25,0,27.9,17,27.9,24.4c0,9.8-5.3,24.2-27.9,24.2H17v29.5H2.6V224.8z M17,259.3
		h8.5c3.8,0,12.3-0.6,12.3-10.2c0-9.6-8.5-10.2-12.3-10.2H17V259.3z"/>
	<linearGradient id="SVGID_16_" gradientUnits="userSpaceOnUse" x1="61.6582" y1="263.8582" x2="125.1504" y2="263.8582">
		<stop  offset="0" style="stop-color:#786EB1"/>
		<stop  offset="1" style="stop-color:#704F9D"/>
	</linearGradient>
	<path fill="url(#SVGID_16_)" d="M61.7,224.8h21.6c35.9,0,41.9,24.3,41.9,39.4c0,8.3-2.1,38.6-41.6,38.6H61.7V224.8z M83.2,288.9
		c7.9,0,27.5-0.9,27.5-24.6c0-24.7-20.4-25.4-28.3-25.4h-6.3v50H83.2z"/>
	<path fill="#7D94CB" d="M149.9,224.8v49.3c0,6.3,0.6,16.7,12.2,16.7c11.5,0,12-10.4,12-16.7v-49.3h14.4v48.7
		c0,22.1-12.2,31.2-26.6,31.2c-10.9,0-26.6-5.5-26.6-31.2v-48.7H149.9z"/>
</g>
<g>
	<path fill="#FFFFFF" d="M1,342.9v-5.1h35.2v5.1h-17c-1.9,2.7-4.7,6.2-8.6,10.5c5.1-0.2,10.1-0.4,15-0.5c-0.2-0.2-0.5-0.6-0.9-1.1
		c-0.9-1.1-2.3-2.8-4.2-5.1l4.5-2.6c4.7,5.3,8.5,9.8,11.3,13.3l-4.8,3.1c-0.2-0.2-0.5-0.7-0.9-1.4c-0.5-0.7-0.9-1.3-1.2-1.7
		c-9.4,0.4-16.3,0.8-20.8,1.1c-1,0.2-2.4,0.4-4,0.5l-2.3-4.5c3.9-3.1,7.3-6.9,10.2-11.6H1z M4.4,331.5v-5.1h28.4v5.1H4.4z"/>
	<path fill="#FFFFFF" d="M40.5,356.3l-0.9-4.8c0.7,0,1.4-0.1,2-0.3v-20.4H40v-4.5h15.7v4.5h-1.5v18.5c0.6-0.2,1.3-0.4,2.2-0.5
		c-0.1,0.7-0.2,1.8-0.3,3.2c-0.1,0.7-0.2,1.2-0.2,1.5c-0.5,0-1.1,0.1-1.7,0.3v6.3h-4.5v-5.6c-0.4,0.1-1,0.2-1.9,0.3
		C46.5,355.4,44.1,355.8,40.5,356.3z M45.9,330.9v3.7h3.9v-3.7H45.9z M45.9,338.6v3.9h3.9v-3.9H45.9z M49.7,350.2v-3.7h-3.9v4.3
		c0.4-0.1,1.1-0.2,2-0.3C48.7,350.3,49.3,350.2,49.7,350.2z M57,326.4l3.7-2c1.2,1.5,2.5,3.3,3.7,5.4l-3.5,1.7h4.9
		c1.4-2.4,2.7-4.8,3.7-7.2l4.8,2c-1.2,1.9-2.3,3.6-3.2,5.2h3.7v4.3h-7.2c0,2.5,0,4.2,0,5.1h8.5v4.3h-7.6c1.4,4.8,4.1,8.3,7.9,10.5
		c-1,1.2-2,2.8-2.9,4.6c-3.7-2.9-6.3-6.9-7.7-12c-1,5-3.5,9.1-7.6,12.2c-1.1-1.4-2.3-2.8-3.5-4.2c4-2.4,6.6-6.1,7.7-11.1h-6.6v-4.3
		h7.1c0-0.1,0-0.4,0-0.9c0.1-1.5,0.2-2.9,0.2-4.2h-6.3v-4.3h3.5c-0.2-0.3-0.5-0.8-0.9-1.5C58.2,328.3,57.5,327.1,57,326.4z"/>
	<path fill="#FFFFFF" d="M90.3,348.9c0.2,0.8,0.5,2,0.8,3.4c0.2,0.6,0.4,1.1,0.5,1.4c-2.5,1.9-4.9,3.9-7.4,6.2l-2.6-3.5
		c0.5-0.5,0.8-1.3,0.8-2.5v-12.3h-3.1v-4.8h8v14.5c0.1-0.1,0.5-0.4,1.1-0.8C89.1,349.9,89.8,349.3,90.3,348.9z M80.4,327l4.3-2.5
		c1.5,2.2,3.1,4.4,4.6,6.6c-1.3,0.7-2.9,1.7-4.8,2.9C83.3,331.6,81.9,329.2,80.4,327z M88.9,345.2v-4.6h4.9v-9.4h-4.3v-4.8h20.8v9.1
		c0,5.2,0,9.9,0,14c0.1,3.7,0.5,5.6,1.1,5.6c0.5-0.1,0.8-2.5,0.9-7.1c0.2,0.1,0.6,0.3,1.1,0.5c0.8,0.5,1.5,0.8,2.2,0.9
		c-0.2,3.4-0.6,5.9-1.1,7.6c-0.9,2.3-2.2,3.4-3.9,3.4c-1.4,0-2.6-0.6-3.4-1.9c-0.9-1.6-1.5-3.9-1.9-6.8c-0.2-1.7-0.3-7.1-0.2-16.2
		v-4.3h-6.2v9.4h5.1v4.6h-5.1v15.3h-5.2v-15.3H88.9z"/>
	<path fill="#FFFFFF" d="M127.7,360.3h-4.9v-16c-0.5,0.1-0.9,0.3-1.2,0.6c-0.9-1.3-1.9-2.5-2.8-3.5c3.7-1.4,6-3,6.9-4.6h-6.6v-3.7
		h2.3c-0.1-0.2-0.3-0.5-0.6-0.9c-0.3-0.5-0.8-1.2-1.5-2c1.3-1.3,2.7-3.2,4-5.7h4.8c-0.1,0.2-0.3,0.6-0.6,1.2
		c-0.3,0.5-0.6,0.9-0.8,1.2H137v3.7h-5.2c0,0.8-0.1,1.6-0.2,2.5h6.5v3.7h-5.7l5.2,3.4l-2.3,2.8h15.6v17.4h-4.9v-1.5h-18.2V360.3z
		 M122.2,333.1h4.6c0.2-0.7,0.3-1.5,0.3-2.5h-2.6C123.8,331.5,123,332.3,122.2,333.1z M125.6,342.9h8.5c-0.7-0.7-1.8-1.7-3.2-2.9
		c-0.5-0.4-0.9-0.7-1.1-0.9C128.8,340.4,127.4,341.7,125.6,342.9z M145.9,349.2v-2.5h-18.2v2.5H145.9z M127.7,352.8v2.5h18.2v-2.5
		H127.7z M138.7,340.8V327h14.6v13.7H138.7z M143.2,336.9h5.6v-6h-5.6V336.9z"/>
	<path fill="#FFFFFF" d="M169.5,329.5l3.5-1.9c1.7,2.3,3.5,4.9,5.4,7.9c-0.6,0.4-1.5,0.9-2.6,1.4c-0.5,0.4-0.9,0.7-1.2,0.8
		c-0.4-0.5-0.8-1.1-1.1-1.7c-2.8,0.1-6.4,0.4-10.9,0.8c-1.4,0.1-2.5,0.2-3.2,0.3l-1.2-4.2c1.5-0.9,4-3.8,7.2-8.6l4.6,1.9
		c-0.7,0.8-1.7,2.1-3.1,3.7c-1,1.2-1.8,2.2-2.3,2.8c0.7-0.1,1.9-0.2,3.4-0.2c1.3-0.1,2.4-0.2,3.2-0.2
		C170.7,331.4,170.1,330.4,169.5,329.5z M164.6,353.6v6.6h-4.5v-21.9h15.6v17.3c0,2.9-1.2,4.3-3.7,4.3c-1.2,0.1-2.8,0.2-4.6,0.2
		c-0.3-1.4-0.7-2.8-1.2-4c1.6,0,2.8,0,3.4,0c1.1,0,1.7-0.6,1.7-1.7v-0.8H164.6z M171.2,344.3v-2.2h-6.6v2.2H171.2z M164.6,347.9v2.2
		h6.6v-2.2H164.6z M189.9,332.7c1.9,0.9,3.4,1.5,4.6,1.9c-0.2,0.9-0.5,2-0.9,3.2c-0.2,0.5-0.3,0.9-0.3,1.1c-0.7,1.9-2.5,2.8-5.2,2.8
		h-3.7c-3.8,0-5.7-1.8-5.7-5.4v-11.6h4.6v5.6c1.7-0.8,4-2,6.6-3.4c0.4-0.2,0.7-0.4,0.9-0.5l3.2,3.7c-1.6,0.8-5,2.2-10,4
		c4-1.4,3.8-1.3-0.8,0.3v1.2c0,1.3,0.8,2,2.5,2h1.2c1.4,0,2.2-0.5,2.3-1.4C189.6,335.4,189.8,334.2,189.9,332.7z M190,350.2
		c1.4,0.6,3,1.2,4.6,1.9c-0.5,2.4-0.9,4-1.2,4.8c-0.8,1.9-2.6,2.8-5.4,2.9h-3.9c-3.7,0-5.6-1.8-5.6-5.4v-11.6h4.6v4.6
		c2.7-1.3,5.2-2.8,7.6-4.3l3.2,3.9c-2.1,1-5.3,2.5-9.9,4.5c3.2-1.3,2.9-1.2-0.9,0.5v1.9c0,1.4,0.7,2.2,2,2.2h1.7
		c1.4,0,2.3-0.5,2.5-1.4c0-0.2,0.1-0.7,0.2-1.4C189.8,351.9,189.9,350.9,190,350.2z"/>
	<path fill="#FFFFFF" d="M213.5,346h-8.6v12.3h-5.4v-32.1h14.3c7,0.3,10.7,3.5,11.3,9.7C224.9,342.6,221.1,345.9,213.5,346z
		 M213,331h-8.2v10.3h8.2c4.4,0,6.6-1.8,6.6-5.4C219.4,332.8,217.2,331.1,213,331z"/>
	<path fill="#FFFFFF" d="M241.8,358.2h-11.6v-31.9h11.9c10.4,0.1,15.6,5.4,15.7,16C258.2,353.2,252.8,358.5,241.8,358.2z M242,331
		h-6.5v22.8h6.3c7.2,0.1,10.7-3.7,10.6-11.4C252.4,335,248.9,331.1,242,331z"/>
	<path fill="#FFFFFF" d="M284.7,326.4h5.2v18.5c0.3,9.7-4.2,14.3-13.4,13.9c-8.8,0.3-13.2-4.3-13-13.9v-18.5h5.2v18.5
		c-0.1,6.5,2.5,9.6,7.7,9.4c5.7,0.2,8.4-2.9,8.2-9.4V326.4z"/>
</g>
</svg>
