<?xml version="1.0" encoding="utf-8"?>
<!-- Generator: Adobe Illustrator 18.0.0, SVG Export Plug-In . SVG Version: 6.00 Build 0)  -->
<!DOCTYPE svg PUBLIC "-//W3C//DTD SVG 1.1//EN" "http://www.w3.org/Graphics/SVG/1.1/DTD/svg11.dtd">
<svg version="1.1" id="图层_1" xmlns="http://www.w3.org/2000/svg" xmlns:xlink="http://www.w3.org/1999/xlink" x="0px" y="0px"
	 viewBox="0 0 588.9 615" enable-background="new 0 0 588.9 615" xml:space="preserve">
<g>
	<path id="XMLID_480_" fill="#7BA3D6" d="M0,615V0h588.9v615L0,615z"/>
	<path id="XMLID_479_" fill="#3961AD" d="M0,445.4V0h588.9v445.4H0z"/>
	<path id="XMLID_478_" fill="#2C5495" d="M0,480.9V242.4h588.9v238.5H0z"/>
	<path id="XMLID_477_" fill="#3961AD" d="M0,615V480.9h178.4V615H0z"/>
	<path id="XMLID_476_" fill="#426EB0" d="M0,480.9V242.4h178.4v238.5H0z"/>
	<path id="XMLID_475_" fill="#0A090A" d="M0,242.4V0h178.4v242.4H0z"/>
</g>
<g>
	<path fill="#FFFFFF" d="M443.8,249.3c10.4,0,20.2,0,30.5,0c0.1,1.4,0.2,2.7,0.2,4c0,23,0,46,0,69c0,25-7.6,46.9-26.4,64
		c-41.2,37.5-106.8,20.7-126.2-32.2c-3.5-9.5-4.6-19.4-4.6-29.4c0-24.4,0-48.7,0-73.1c0-0.6,0.1-1.2,0.1-2.2c9.8,0,19.6,0,29.9,0
		c0.1,1.3,0.2,2.7,0.2,4.2c0,24,0,48,0,72c0,25.8,14.7,44.1,39.9,49.8c18.6,4.2,40.9-6.5,50.3-24c4.1-7.5,6-15.5,6-24
		c-0.1-24.4,0-48.7,0-73.1C443.8,252.7,443.8,251.2,443.8,249.3z"/>
	<path fill="#FFFFFF" d="M309.6,374.6c0,10.1,0,19.8,0,30.6c-5.9-1.3-11.5-2-16.9-3.7c-33.1-10.3-55.1-40-55.5-74.6
		c-0.2-14.6-0.2-29.2-0.2-43.8c0-1.4,0-2.7,0-4.6c-5.9,0-11.6,0-17.4,0c0-10.4,0-20.4,0-30.6c30,0,59.8,0,89.9,0c0,10,0,20,0,30.4
		c-13.9,0-27.7,0-41.6,0c-0.2,1-0.4,1.6-0.4,2.2c0.1,16.9-0.3,33.7,0.4,50.6c0.7,20.2,17.6,38.9,37.6,42.6
		C306.7,373.8,308,374.2,309.6,374.6z"/>
	<path fill="#FFFFFF" d="M211.5,247.3c0,10.5,0,20.2,0,29.9c-5.9,0.4-11.7,0.2-17.3,1.1c-20.5,3.3-35,20.4-35.1,41.3
		c-0.1,27.4,0,54.7,0,82.1c0,1,0,2,0,3.2c-9.3,0-18.3,0-27.6,0c-0.1-1.1-0.3-2.2-0.3-3.2c0-26.4-0.2-52.7,0.3-79.1
		c0.3-17.8,4.2-34.7,15.9-48.9c13.3-16.3,30.4-25.5,51.6-26.4C203,247.2,207.1,247.3,211.5,247.3z"/>
	
		<linearGradient id="SVGID_1_" gradientUnits="userSpaceOnUse" x1="381.3802" y1="1339.7465" x2="402.3802" y2="1339.7465" gradientTransform="matrix(4.489659e-011 -1 1 4.489659e-011 -926.0392 647.3228)">
		<stop  offset="0" style="stop-color:#A9DBED"/>
		<stop  offset="0.5517" style="stop-color:#A5D299"/>
		<stop  offset="1" style="stop-color:#B3DCCD"/>
	</linearGradient>
	<circle fill="url(#SVGID_1_)" cx="413.7" cy="255.4" r="10.5"/>
	
		<linearGradient id="SVGID_2_" gradientUnits="userSpaceOnUse" x1="349.6302" y1="1339.7465" x2="370.6302" y2="1339.7465" gradientTransform="matrix(4.489659e-011 -1 1 4.489659e-011 -926.0392 647.3228)">
		<stop  offset="0" style="stop-color:#A9DBED"/>
		<stop  offset="0.5517" style="stop-color:#A5D299"/>
		<stop  offset="1" style="stop-color:#B3DCCD"/>
	</linearGradient>
	<circle fill="url(#SVGID_2_)" cx="413.7" cy="287.2" r="10.5"/>
	
		<linearGradient id="SVGID_3_" gradientUnits="userSpaceOnUse" x1="320.8802" y1="1339.7465" x2="341.8802" y2="1339.7465" gradientTransform="matrix(4.489659e-011 -1 1 4.489659e-011 -926.0392 647.3228)">
		<stop  offset="0" style="stop-color:#A9DBED"/>
		<stop  offset="0.5517" style="stop-color:#A5D299"/>
		<stop  offset="1" style="stop-color:#B3DCCD"/>
	</linearGradient>
	<circle fill="url(#SVGID_3_)" cx="413.7" cy="315.9" r="10.5"/>
	
		<linearGradient id="SVGID_4_" gradientUnits="userSpaceOnUse" x1="294.1302" y1="1339.7465" x2="315.1302" y2="1339.7465" gradientTransform="matrix(4.489659e-011 -1 1 4.489659e-011 -926.0392 647.3228)">
		<stop  offset="0" style="stop-color:#A9DBED"/>
		<stop  offset="0.5517" style="stop-color:#A5D299"/>
		<stop  offset="1" style="stop-color:#B3DCCD"/>
	</linearGradient>
	<circle fill="url(#SVGID_4_)" cx="413.7" cy="342.7" r="10.5"/>
	
		<linearGradient id="SVGID_5_" gradientUnits="userSpaceOnUse" x1="381.3802" y1="1304.2465" x2="402.3802" y2="1304.2465" gradientTransform="matrix(4.489659e-011 -1 1 4.489659e-011 -926.0392 647.3228)">
		<stop  offset="0" style="stop-color:#EF8DA9"/>
		<stop  offset="1" style="stop-color:#E83F6D"/>
	</linearGradient>
	<circle fill="url(#SVGID_5_)" cx="378.2" cy="255.4" r="10.5"/>
	
		<linearGradient id="SVGID_6_" gradientUnits="userSpaceOnUse" x1="349.6302" y1="1304.2465" x2="370.6302" y2="1304.2465" gradientTransform="matrix(4.489659e-011 -1 1 4.489659e-011 -926.0392 647.3228)">
		<stop  offset="0" style="stop-color:#A9DBED"/>
		<stop  offset="0.5517" style="stop-color:#A5D299"/>
		<stop  offset="1" style="stop-color:#B3DCCD"/>
	</linearGradient>
	<circle fill="url(#SVGID_6_)" cx="378.2" cy="287.2" r="10.5"/>
	
		<linearGradient id="SVGID_7_" gradientUnits="userSpaceOnUse" x1="320.8802" y1="1304.2465" x2="341.8802" y2="1304.2465" gradientTransform="matrix(4.489659e-011 -1 1 4.489659e-011 -926.0392 647.3228)">
		<stop  offset="0" style="stop-color:#A9DBED"/>
		<stop  offset="0.5517" style="stop-color:#A5D299"/>
		<stop  offset="1" style="stop-color:#B3DCCD"/>
	</linearGradient>
	<circle fill="url(#SVGID_7_)" cx="378.2" cy="315.9" r="10.5"/>
	
		<linearGradient id="SVGID_8_" gradientUnits="userSpaceOnUse" x1="294.1302" y1="1304.2465" x2="315.1302" y2="1304.2465" gradientTransform="matrix(4.489659e-011 -1 1 4.489659e-011 -926.0392 647.3228)">
		<stop  offset="0" style="stop-color:#A9DBED"/>
		<stop  offset="0.5517" style="stop-color:#A5D299"/>
		<stop  offset="1" style="stop-color:#B3DCCD"/>
	</linearGradient>
	<circle fill="url(#SVGID_8_)" cx="378.2" cy="342.7" r="10.5"/>
</g>
<g>
	<g>
		<path fill="#FFFFFF" d="M65.7,173.4v289.2h465V173.4H65.7z M518.2,448.9h-440V187.1h440V448.9z"/>
		<g>
			<rect x="505.4" y="166.4" fill="#FFFFFF" width="32" height="32"/>
			
				<linearGradient id="SVGID_9_" gradientUnits="userSpaceOnUse" x1="-882.6073" y1="-1266.7158" x2="-864.9823" y2="-1266.7158" gradientTransform="matrix(1 0 0 1 1395.2263 1449.0978)">
				<stop  offset="0" style="stop-color:#EF8DA9"/>
				<stop  offset="1" style="stop-color:#E83F6D"/>
			</linearGradient>
			<rect x="512.6" y="173.6" fill="url(#SVGID_9_)" width="17.6" height="17.6"/>
		</g>
		<g>
			<rect x="505.4" y="440.4" fill="#FFFFFF" width="32" height="32"/>
			
				<linearGradient id="SVGID_10_" gradientUnits="userSpaceOnUse" x1="-882.6073" y1="-992.7158" x2="-864.9823" y2="-992.7158" gradientTransform="matrix(1 0 0 1 1395.2263 1449.0978)">
				<stop  offset="0" style="stop-color:#A9DBED"/>
				<stop  offset="0.5517" style="stop-color:#A5D299"/>
				<stop  offset="1" style="stop-color:#B3DCCD"/>
			</linearGradient>
			<rect x="512.6" y="447.6" fill="url(#SVGID_10_)" width="17.6" height="17.6"/>
		</g>
		<g>
			<rect x="56.4" y="166" fill="#FFFFFF" width="32" height="32"/>
			<rect x="63.6" y="173.2" fill="#F8C09B" width="17.6" height="17.6"/>
		</g>
		<rect x="56.4" y="440" fill="#FFFFFF" width="32" height="32"/>
	</g>
	
		<linearGradient id="SVGID_11_" gradientUnits="userSpaceOnUse" x1="359.64" y1="-680.9858" x2="377.265" y2="-680.9858" gradientTransform="matrix(4.489659e-011 -1 1 4.489659e-011 755.4567 824.4586)">
		<stop  offset="0" style="stop-color:#786EB1"/>
		<stop  offset="1" style="stop-color:#704F9D"/>
	</linearGradient>
	<rect x="65.7" y="447.2" fill="url(#SVGID_11_)" width="17.6" height="17.6"/>
</g>
</svg>
