<?xml version="1.0" encoding="utf-8"?>
<!-- Generator: Adobe Illustrator 18.0.0, SVG Export Plug-In . SVG Version: 6.00 Build 0)  -->
<!DOCTYPE svg PUBLIC "-//W3C//DTD SVG 1.1//EN" "http://www.w3.org/Graphics/SVG/1.1/DTD/svg11.dtd">
<svg version="1.1" id="图层_1" xmlns="http://www.w3.org/2000/svg" xmlns:xlink="http://www.w3.org/1999/xlink" x="0px" y="0px"
	 viewBox="0 0 72.5 48.4" enable-background="new 0 0 72.5 48.4" xml:space="preserve">
<g>
	<path fill="#757576" d="M64.7,29.2c-1.3,0.8-2.6,1.7-3.9,2.5c-0.2-0.2-0.3-0.4-0.5-0.5c-3.7-3.8-10.3-2.7-12.5,2
		c-1.6,3.3-0.2,7.1,2.9,9c0.7,0.4,1.6,0.6,2.4,0.7c5.8,0.9,12.4-3.1,13.8-10.2c0.7-3.6,0.2-7-1.7-10.1c-2.2-3.4-5.3-5.6-9.2-6.5
		c-3.2-0.7-6.3-0.2-9.3,0.9c-1.2,0.5-2.3,1-3.3,1.7c-0.8,0.6-1.7,1.1-2.6,1.6c0.7-1.3,1.7-2.4,2.9-3.4c1.1-1,2.4-1.8,3.8-2.5
		c-0.1-0.2-0.1-0.5-0.2-0.7c-1.8-4.6-5-7.7-9.6-9.5c-2.1-0.8-4.3-1.2-6.6-1.1c-5.3,0.2-9.8,2-13.5,5.9c-0.6,0.6-1.1,1.3-1.6,2
		c-0.1,0.1-0.2,0.2-0.3,0.3c0-0.2,0.1-0.3,0.1-0.5c0.9-2.5,2.5-4.5,4.5-6.2c2.6-2.1,5.6-3.4,8.8-4.2c2.3-0.5,4.5-0.6,6.8-0.4
		c5.2,0.4,9.9,2.3,13.7,6c1.9,1.9,3.3,4.1,3.9,6.8c0,0.1,0.1,0.2,0.1,0.4c0.3,0,0.6,0,0.9,0c4,0,7.6,1.1,10.9,3.4
		c3.1,2.1,5.2,5.1,6.3,8.7c1.2,3.7,1.2,7.5,0.1,11.3c-0.9,3-2.6,5.5-5,7.5c-2.8,2.4-6,3.7-9.6,4.2c-3.4,0.5-6.6,0-9.7-1.4
		c-2.1-1-3.8-2.5-5.1-4.4c-3.6-5.2-2.6-12.7,3.2-16.8c2.7-1.9,5.8-2.7,9.1-2.4c4.2,0.3,7.5,2.2,10,5.6C64.5,28.9,64.6,29,64.7,29.2z
		"/>
	<path fill="#757576" d="M24.6,28.6c-1.3,0.8-2.6,1.6-3.9,2.5c-0.2-0.2-0.4-0.4-0.7-0.7c-3.2-3.1-8.6-2.8-11.5,0.7
		c-2.5,3.1-2,7.4,1.1,9.9c1.5,1.2,3.3,1.9,5.2,2.3c2.8,0.6,5.6,0.2,8.3-0.6c0.3-0.1,0.6-0.2,0.8-0.3c0,0,0.1,0,0.2,0
		c0.1,0.8,0.1,1.6,0.2,2.5c0,0.3-0.1,0.3-0.3,0.4c-0.8,0.4-1.6,0.8-2.5,1.2c-2.1,0.9-4.3,1.3-6.6,1.3c-2.8,0-5.4-0.5-7.9-1.7
		c-2-1-3.7-2.5-5-4.5c-3.4-5.2-2.3-12.2,2.9-16.3c2.8-2.2,6-3.1,9.5-2.8c4.1,0.3,7.4,2.1,9.9,5.4C24.3,28.2,24.4,28.4,24.6,28.6z"/>
	<path fill="#757576" d="M42.9,48.2c-0.4,0-0.7,0-1,0c-1.8-0.1-3.7-0.2-5.4-0.8c-2.3-0.8-4.3-2-5.9-3.9c-1-1.1-1.7-2.4-1.9-3.9
		c-0.1-0.9-0.2-1.7-0.2-2.6c0-3.8,0-7.7,0-11.5c0-4.1,0-8.3,0-12.4c0-0.2,0-0.5,0-0.7c1.9,0,3.8,0,5.8,0c0,0.2,0,0.4,0,0.5
		c0,8.1,0,16.1,0,24.2c0,1.4,0.1,2.7,0.5,4c1.2,3.7,3.8,5.9,7.4,6.9C42.5,48.1,42.7,48.1,42.9,48.2C42.9,48.2,42.9,48.2,42.9,48.2z"
		/>
</g>
</svg>
