<?xml version="1.0" encoding="utf-8"?>
<!-- Generator: Adobe Illustrator 18.0.0, SVG Export Plug-In . SVG Version: 6.00 Build 0)  -->
<!DOCTYPE svg PUBLIC "-//W3C//DTD SVG 1.1//EN" "http://www.w3.org/Graphics/SVG/1.1/DTD/svg11.dtd">
<svg version="1.1" id="图层_1" xmlns="http://www.w3.org/2000/svg" xmlns:xlink="http://www.w3.org/1999/xlink" x="0px" y="0px"
	 viewBox="0 0 189.4 48.4" enable-background="new 0 0 189.4 48.4" xml:space="preserve">
<g>
	<path fill="#FFFFFF" d="M64.7,29.2c-1.3,0.8-2.6,1.7-3.9,2.5c-0.2-0.2-0.3-0.4-0.5-0.5c-3.7-3.8-10.3-2.7-12.5,2
		c-1.6,3.3-0.2,7.1,2.9,9c0.7,0.4,1.6,0.6,2.4,0.7c5.8,0.9,12.4-3.1,13.8-10.2c0.7-3.6,0.2-7-1.7-10.1c-2.2-3.4-5.3-5.6-9.2-6.5
		c-3.2-0.7-6.3-0.2-9.3,0.9c-1.2,0.5-2.3,1-3.3,1.7c-0.8,0.6-1.7,1.1-2.6,1.6c0.7-1.3,1.7-2.4,2.9-3.4c1.1-1,2.4-1.8,3.8-2.5
		c-0.1-0.2-0.1-0.5-0.2-0.7c-1.8-4.6-5-7.7-9.6-9.5c-2.1-0.8-4.3-1.2-6.6-1.1c-5.3,0.2-9.8,2-13.5,5.9c-0.6,0.6-1.1,1.3-1.6,2
		c-0.1,0.1-0.2,0.2-0.3,0.3c0-0.2,0.1-0.3,0.1-0.5c0.9-2.5,2.5-4.5,4.5-6.2c2.6-2.1,5.6-3.4,8.8-4.2c2.3-0.5,4.5-0.6,6.8-0.4
		c5.2,0.4,9.9,2.3,13.7,6c1.9,1.9,3.3,4.1,3.9,6.8c0,0.1,0.1,0.2,0.1,0.4c0.3,0,0.6,0,0.9,0c4,0,7.6,1.1,10.9,3.4
		c3.1,2.1,5.2,5.1,6.3,8.7c1.2,3.7,1.2,7.5,0.1,11.3c-0.9,3-2.6,5.5-5,7.5c-2.8,2.4-6,3.7-9.6,4.2c-3.4,0.5-6.6,0-9.7-1.4
		c-2.1-1-3.8-2.5-5.1-4.4c-3.6-5.2-2.6-12.7,3.2-16.8c2.7-1.9,5.8-2.7,9.1-2.4c4.2,0.3,7.5,2.2,10,5.6C64.5,28.9,64.6,29,64.7,29.2z
		"/>
	<path fill="#FFFFFF" d="M24.6,28.6c-1.3,0.8-2.6,1.6-3.9,2.5c-0.2-0.2-0.4-0.4-0.7-0.7c-3.2-3.1-8.6-2.8-11.5,0.7
		c-2.5,3.1-2,7.4,1.1,9.9c1.5,1.2,3.3,1.9,5.2,2.3c2.8,0.6,5.6,0.2,8.3-0.6c0.3-0.1,0.6-0.2,0.8-0.3c0,0,0.1,0,0.2,0
		c0.1,0.8,0.1,1.6,0.2,2.5c0,0.3-0.1,0.3-0.3,0.4c-0.8,0.4-1.6,0.8-2.5,1.2c-2.1,0.9-4.3,1.3-6.6,1.3c-2.8,0-5.4-0.5-7.9-1.7
		c-2-1-3.7-2.5-5-4.5c-3.4-5.2-2.3-12.2,2.9-16.3c2.8-2.2,6-3.1,9.5-2.8c4.1,0.3,7.4,2.1,9.9,5.4C24.3,28.2,24.4,28.4,24.6,28.6z"/>
	<path fill="#FFFFFF" d="M42.9,48.2c-0.4,0-0.7,0-1,0c-1.8-0.1-3.7-0.2-5.4-0.8c-2.3-0.8-4.3-2-5.9-3.9c-1-1.1-1.7-2.4-1.9-3.9
		c-0.1-0.9-0.2-1.7-0.2-2.6c0-3.8,0-7.7,0-11.5c0-4.1,0-8.3,0-12.4c0-0.2,0-0.5,0-0.7c1.9,0,3.8,0,5.8,0c0,0.2,0,0.4,0,0.5
		c0,8.1,0,16.1,0,24.2c0,1.4,0.1,2.7,0.5,4c1.2,3.7,3.8,5.9,7.4,6.9C42.5,48.1,42.7,48.1,42.9,48.2C42.9,48.2,42.9,48.2,42.9,48.2z"
		/>
</g>
<g>
	<path fill="#FFFFFF" d="M134,9.6c0,0.2,0,0.4,0,0.6c0,0.8,0,1.7,0,2.6c-0.6,0-1.2,0-1.8,0c0,6.9,0,13.7,0,20.5
		c0.6-0.2,1.1-0.3,1.7-0.5c0,0.7,0,1.3,0,1.9c-0.5,0.3-1.1,0.6-1.8,1c0,1.3,0,2.6,0,3.9c-1.2,0-2.2,0-3.4,0c0-0.8,0-1.6,0-2.5
		c-3.8,1.3-7.7,2.3-11.7,2.6c0-1.2,0-2.4,0-3.6c0.6-0.1,1.3-0.2,2-0.3c0-7.7,0-15.3,0-23.1c-0.7,0-1.3,0-2,0c0-1.1,0-2.2,0-3.3
		C122.8,9.6,128.3,9.6,134,9.6z M128.8,29.2c-2.1,0-4.1,0-6.1,0c-0.2,1.4-0.1,5.6,0.1,6.3c2-0.4,4-0.8,6-1.2
		C128.8,32.6,128.8,30.9,128.8,29.2z M128.8,12.9c-2.1,0-4.1,0-6.1,0c0,1.6,0,3.2,0,4.8c2.1,0,4.1,0,6.1,0
		C128.8,16.1,128.8,14.5,128.8,12.9z M122.6,25.7c2.1,0,4.1,0,6.1,0c0-1.5,0-3,0-4.5c-2.1,0-4.1,0-6.1,0
		C122.6,22.7,122.6,24.2,122.6,25.7z"/>
	<path fill="#FFFFFF" d="M187.8,9.6c0,0.4,0,0.7,0,1.1c0,7.5,0,14.9,0,22.4c0,1.4,0.3,2.7,1.2,3.8c0.1,0.2,0.2,0.4,0.3,0.6
		c0,0.6,0,1.1,0,1.7c-0.7,0.2-1.2,0-1.7-0.2c-2.2-0.7-3.6-2.7-3.6-5c0-6.7,0-13.4,0-20.1c0-0.4,0-0.7,0-1.1c-2.8,0-5.4,0-8.2,0
		c0,3.4,0,6.9,0,10.4c2,0,4,0,6,0c0,1.1,0,2.2,0,3.3c-2,0-3.9,0-6,0c0,4.3,0,8.5,0,12.7c-1.3,0-2.5,0-3.8,0c0-4.2,0-8.4,0-12.7
		c-2,0-3.8,0-5.8,0c0-1.1,0-2.2,0-3.3c1.9,0,3.7,0,5.7,0c0-3.5,0-7,0-10.5c-1.8,0-3.6,0-5.6,0c-0.1-1.1,0-2.2,0-3.2
		C167,9.5,186.7,9.4,187.8,9.6z"/>
	<path fill="#FFFFFF" d="M87.3,24.7c-2.3,0-4.5,0-6.8,0c0-1.2,0-2.3,0-3.4c0.7-0.2,30.7-0.3,31.6,0c0,1.1,0,2.2,0,3.4
		c-7,0-14,0-21,0c-0.7,4-2.2,7.8-3.9,11.5c6.2,0,12.2,0,18.3,0c-0.8-2.5-1.7-5-1.9-7.7c1.1,0,2.1,0,3.2,0c1.1,3.9,2.8,7.7,5.2,10.9
		c-0.7,0.2-30.3,0.1-31.4-0.1c2.8-4.4,5.5-8.9,6.7-14C87.3,25.1,87.3,24.9,87.3,24.7z"/>
	<path fill="#FFFFFF" d="M135.4,39.8c-0.4-0.6-0.7-1.2-1.1-1.7c0.6-0.5,1.2-1,1.8-1.5c1.7-1.5,3.3-3.2,4.4-5.2c0.5-1,0.9-2,1-3.2
		c-1.9,0-3.8,0-5.9,0c-0.1-1,0-2,0-3.1c1-0.1,2,0,2.9,0c1,0,1.9,0,3,0c0.1-2,0-4,0-6c-1.9,0-3.8,0-5.7,0c0-1,0-2,0-3
		c0.3,0,0.5-0.1,0.8-0.1c1.6,0,3.3,0,4.9,0c0.5,0,0.8-0.1,1.1-0.5c1.6-1.7,3.1-3.4,4.3-5.4c0.3-0.4,0.6-0.6,1.1-0.6c1,0,1.9,0,3.1,0
		c-1.2,2.3-2.8,4.2-4.4,6.3c1.5,0.2,2.9,0,4.3,0.2c0,1,0,1.9,0,2.9c-1.9,0.3-3.7,0-5.7,0.2c-0.1,1.9-0.1,3.9,0,5.9c2,0,3.9,0,5.9,0
		c0,1.1,0,2.1,0,3.2c-1.9,0-3.8,0-5.8,0c0.1,0.4,0.1,0.8,0.2,1.1c0.4,1.7,1.3,3.1,2.4,4.4c1.1,1.4,2.4,2.6,3.8,3.7
		c0.2,0.2,0.5,0.4,0.7,0.6c-0.4,0.6-0.7,1.1-1.1,1.7c-3.2-1.6-6.1-3.5-8.1-6.6C141.4,36.3,138.6,38.2,135.4,39.8z"/>
	<path fill="#FFFFFF" d="M110.6,9.6c0,1,0,2.1,0,3.2c-9.7,0-19.3,0-29.1,0c0-0.5,0-1.1,0-1.6c0-0.5,0-1,0-1.5
		C82.2,9.5,109.6,9.4,110.6,9.6z"/>
	<path fill="#FFFFFF" d="M156.1,35c0.6-0.2,1.2-0.3,1.8-0.4c0.7-0.2,0.7-0.2,0.7-0.9c0-2.4,0-4.9,0-7.3c0-1.2,0-2.5,0-3.7
		c0-0.1,0-0.3-0.1-0.5c-0.8,0-1.5-0.1-2.3-0.1c0-1.1,0-2.1,0-3.1c0.6-0.2,4.8-0.2,6.1-0.1c0,4.6,0,9.2,0,13.9
		c0.9-0.2,1.4-0.8,2.3-1.1c0,0.8,0,1.5,0,2.2c0,0.2-0.2,0.4-0.3,0.5c-2.3,2.1-5,3.5-8,4.3c-0.1,0-0.1,0-0.2,0
		C156.1,37.4,156.1,36.2,156.1,35z"/>
	<path fill="#FFFFFF" d="M156.7,10c1,0,1.9,0,2.9,0c0.2,0,0.4,0.2,0.5,0.3c0.8,1.7,1.5,3.5,1.9,5.5c-0.6,0-1.2,0-1.7,0
		c-0.6,0-1.1,0-1.7,0C158,13.9,157.3,12,156.7,10z"/>
	<path fill="#FFFFFF" d="M140.3,15.1c-1.9-1.2-4.1-4-4.4-5.6c1.1,0,2.1,0,3.2,0c0.2,0,0.4,0.2,0.5,0.3c0.9,1,1.8,2,2.8,3.1
		c-0.3,0.3-0.6,0.7-1,1.1C141.1,14.3,140.7,14.7,140.3,15.1z"/>
	<path fill="#FFFFFF" d="M143.6,43.3c0.4,0,0.8,0,1.3,0c0.4,1.3,0.9,2.5,1.3,3.8c0.1,0,0.1,0,0.2,0c0.4-1.2,0.8-2.5,1.3-3.8
		c0.4,0,0.8,0,1.3,0c0,1.6,0,3.2,0,4.9c-0.2,0-0.4,0.1-0.7,0.1c0-1.3,0-2.5,0-3.7c-0.1,0-0.1,0-0.2,0c-0.1,0.2-0.2,0.3-0.2,0.5
		c-0.3,0.9-0.6,1.8-0.9,2.7c-0.2,0.5-0.4,0.7-1,0.5c-0.4-1.2-0.9-2.5-1.4-3.7c-0.1,0-0.1,0-0.2,0c0,1.2,0,2.5,0,3.7
		c-0.3,0-0.5,0-0.7,0C143.6,46.6,143.6,45,143.6,43.3z"/>
	<path fill="#FFFFFF" d="M141.5,44.5c-0.4,1.2-0.9,2.4-1.3,3.6c-0.8,0.1-0.8,0.2-1-0.5c-0.3-0.9-0.6-1.8-0.9-2.7
		c-0.1-0.2-0.2-0.4-0.4-0.5c0,1.2,0,2.4,0,3.6c-0.2,0-0.4,0.1-0.6,0.1c-0.2-0.6-0.3-3.7-0.1-5c0.4,0,0.7,0,1.2,0
		c0.4,1.3,0.9,2.6,1.4,4c0.5-1.4,0.9-2.7,1.4-4c0.4,0,0.8,0,1.3,0c0,1.7,0,3.3,0,4.9c-0.5,0.2-0.7,0.1-0.7-0.4c0-1.1,0-2.1,0-3.2
		C141.7,44.6,141.6,44.6,141.5,44.5z"/>
	<path fill="#FFFFFF" d="M114.4,43.3c0.7-0.2,1,0,1.3,0.5c0.5,0.9,1.1,1.8,1.6,2.6c0.1,0.2,0.2,0.3,0.5,0.4c0-1.2,0-2.4,0-3.6
		c0.3,0,0.5,0,0.7,0c0,1.7,0,3.3,0,4.9c-0.8,0.2-0.8,0.2-1.2-0.4c-0.6-0.9-1.1-1.7-1.6-2.6c-0.1-0.2-0.3-0.4-0.6-0.6
		c0,1.2,0,2.4,0,3.6c-0.3,0-0.5,0.1-0.8,0.1C114.4,46.6,114.4,45,114.4,43.3z"/>
	<path fill="#FFFFFF" d="M101.2,48.3c0-1.7,0-3.3,0-5c0.9-0.1,1.8-0.2,2.6,0c0.8,0.2,1.4,0.7,1.6,1.6c0.1,0.4,0.1,0.8,0.1,1.2
		c-0.1,1.3-0.7,2-2,2.2C102.8,48.3,102,48.3,101.2,48.3z M102,47.6c1.6,0.2,2-0.2,2.3-0.8c0.4-0.7,0.3-1.9-0.2-2.4
		c-0.6-0.7-1.4-0.6-2.1-0.5C102,45.2,102,46.4,102,47.6z"/>
	<path fill="#FFFFFF" d="M95,45.7c0,1.6-0.9,2.6-2.4,2.6c-1.6,0-2.6-0.9-2.5-2.5c0-1.7,0.8-2.6,2.5-2.7C94.1,43.1,94.9,44.2,95,45.7
		z M94,45.8c0-1.1-0.6-2-1.6-2c-0.8,0-1.5,0.7-1.6,1.8c-0.1,1.1,0.4,1.9,1.3,2.1C93.3,47.8,94,47.1,94,45.8z"/>
	<path fill="#FFFFFF" d="M181.8,48.4c-1.5,0-2.5-1.1-2.5-2.7c0-1.6,1-2.7,2.5-2.6c1.7,0.1,2.4,1,2.5,2.6
		C184.3,47,183.6,48.4,181.8,48.4z M181.7,47.8c0.7,0,1.1-0.3,1.4-0.9c0.4-0.8,0.4-1.6-0.1-2.3c-0.5-0.8-1.6-1-2.3-0.3
		c-0.7,0.7-0.8,2.2,0,2.9C180.9,47.4,181.3,47.7,181.7,47.8z"/>
	<path fill="#FFFFFF" d="M136.4,45.8c0,1.5-1,2.5-2.5,2.5c-1.5,0-2.5-1-2.5-2.6c0.1-1.9,1.2-2.6,2.5-2.6
		C135.5,43.1,136.5,44.3,136.4,45.8z M135.6,45.8c-0.1-0.4-0.2-0.8-0.4-1.2c-0.4-0.8-1.4-1-2.1-0.5c-1,0.6-1.1,2.6-0.1,3.3
		c0.2,0.1,0.4,0.2,0.6,0.2C134.7,47.8,135.5,47.1,135.6,45.8z"/>
	<path fill="#FFFFFF" d="M185.9,44.4c0,1.4,0,2.6,0,3.9c-0.3,0-0.5,0-0.7,0c0-1.7,0-3.3,0-4.9c0.9-0.2,0.9-0.2,1.3,0.5
		c0.5,0.9,1.1,1.8,1.6,2.6c0.1,0.2,0.2,0.3,0.5,0.4c0-1.2,0-2.4,0-3.6c0.3,0,0.5,0,0.7,0c0,1.6,0,3.3,0,4.9
		c-0.8,0.2-0.8,0.2-1.2-0.4c-0.6-0.9-1.2-1.8-1.7-2.8C186.3,44.8,186.2,44.7,185.9,44.4z"/>
	<path fill="#FFFFFF" d="M159.7,48.2c-0.6,0.2-0.9,0-1.2-0.4c-0.7-1.1-1.4-2.2-2.1-3.3c-0.2,1.2-0.1,2.4-0.2,3.7
		c-0.2,0-0.4,0-0.7,0.1c0-1.7,0-3.3,0-5c0.6-0.3,1,0,1.3,0.6c0.6,1,1.3,2.1,2,3.1c0-1.2,0-2.4,0-3.6c0.3,0,0.5-0.1,0.8-0.1
		C159.7,44.9,159.7,46.6,159.7,48.2z"/>
	<path fill="#FFFFFF" d="M154.5,43.2c0,1.2,0,2.3,0,3.3c-0.1,1.1-0.8,1.8-1.9,1.8c-0.1,0-0.2,0-0.3,0c-1.4,0-2.1-0.6-2.2-1.9
		c-0.1-1,0-2.1,0-3.1c0.3,0,0.5,0,0.9,0c0,0.6,0,1.1,0,1.7c0,0.5,0,1,0,1.5c0.1,0.8,0.5,1.2,1.2,1.2c0.8,0,1.3-0.3,1.3-1.1
		c0.1-0.7,0-1.3,0-2c0-0.4,0-0.8,0-1.2C153.9,43.3,154.1,43.2,154.5,43.2z"/>
	<path fill="#FFFFFF" d="M120.5,48.3c-0.3,0-0.5,0-0.8,0c0-1.7,0-3.3,0-5c0.2,0,0.4,0,0.7,0c0,0.7,0,1.5,0,2.4
		c0.3-0.3,0.5-0.4,0.7-0.5c0.5-0.5,1-1,1.4-1.5c0.4-0.4,0.8-0.5,1.4-0.3c-0.7,0.7-1.3,1.3-1.9,2c0.7,0.9,1.4,1.8,2.2,2.8
		c-0.7,0.2-1,0.1-1.4-0.4c-0.4-0.6-0.9-1.2-1.3-1.8C120.5,46.5,120.4,47.3,120.5,48.3z"/>
	<path fill="#FFFFFF" d="M172.5,48.2c-0.8,0.1-0.8,0.1-1.4-1.3c-0.7,0-1.4,0-2.1,0c-0.5,0.4-0.2,1.6-1.5,1.2c0.7-1.6,1.3-3.3,2-4.9
		c0.3,0,0.7,0,1,0C171.2,44.9,171.8,46.5,172.5,48.2z M170.1,44.2c-0.1,0-0.1,0-0.2,0c-0.2,0.7-0.5,1.3-0.7,2c0.6,0,1.1,0,1.7,0
		C170.6,45.5,170.3,44.8,170.1,44.2z"/>
	<path fill="#FFFFFF" d="M167.1,44.6c-0.2,0.1-0.4,0.1-0.7,0.2c-0.1-0.2-0.2-0.4-0.4-0.5c-0.7-0.8-1.8-0.7-2.3,0.2
		c-0.3,0.6-0.4,1.3-0.1,2c0.2,0.6,0.6,1,1.2,1c0.6,0.1,1.1-0.2,1.4-0.8c0-0.1,0.1-0.2,0.2-0.4c0.2,0,0.4,0.1,0.7,0.1
		c0,0.1,0,0.2,0,0.3c-0.4,1-1,1.4-2.1,1.4c-1.1,0-1.9-0.5-2.2-1.4c-0.3-0.7-0.3-1.5,0-2.2c0.3-1,1.1-1.6,2.2-1.6
		C165.9,43.1,166.7,43.5,167.1,44.6z"/>
	<path fill="#FFFFFF" d="M95.9,43.3c0.2,0,0.4,0,0.8,0c0,0.7,0,1.5,0,2.2c0,0.4,0,0.9,0.1,1.3c0.1,0.6,0.5,0.9,1.2,0.9
		c0.7,0,1.1-0.2,1.3-0.8c0.1-0.3,0.1-0.7,0.1-1.1c0-0.8,0-1.6,0-2.5c0.3,0,0.5,0,0.8,0c0,1.2,0.1,2.4-0.1,3.6
		c-0.1,0.6-0.5,1.2-1.1,1.3c-0.6,0.1-1.2,0.1-1.8,0c-0.7-0.1-1.2-0.7-1.2-1.4C95.8,45.7,95.9,44.5,95.9,43.3z"/>
	<path fill="#FFFFFF" d="M85,44.6c-0.2,0.1-0.4,0.2-0.7,0.2c-0.1-0.2-0.2-0.3-0.3-0.5c-0.7-0.8-1.8-0.7-2.3,0.2
		c-0.3,0.6-0.4,1.3-0.1,2c0.2,0.6,0.6,0.9,1.2,1c0.6,0.1,1.1-0.1,1.4-0.7c0.1-0.1,0.1-0.2,0.2-0.4c0.2,0,0.4,0,0.7,0.1
		c0,0.1,0.1,0.2,0,0.3c-0.3,0.9-0.9,1.4-1.9,1.4c-1.2,0.1-2-0.4-2.4-1.3c-0.3-0.8-0.4-1.6-0.1-2.4c0.3-1,1.2-1.6,2.2-1.6
		C83.9,43.1,84.6,43.6,85,44.6z"/>
	<path fill="#FFFFFF" d="M130.2,46.5c0.3,0.1,0.4,0.1,0.6,0.2c-0.2,1.4-1.4,2-2.8,1.6c-1-0.3-1.5-1-1.7-2c-0.2-1.4,0.5-2.6,1.7-3
		c1.3-0.4,2.2,0.1,2.8,1.3c-0.2,0.1-0.4,0.2-0.7,0.3c-0.1-0.2-0.2-0.3-0.3-0.5c-0.7-0.9-1.9-0.7-2.4,0.3c-0.3,0.6-0.3,1.2-0.1,1.9
		c0.2,0.6,0.5,1,1.2,1.1c0.7,0.1,1.2-0.1,1.5-0.8C130,46.7,130,46.6,130.2,46.5z"/>
	<path fill="#FFFFFF" d="M175.2,48.3c-0.4,0-0.6,0-0.9,0c0-1.4,0-2.8,0-4.3c-0.5,0-0.9,0-1.3,0c-0.4,0-0.5-0.2-0.3-0.6
		c1.4,0,2.7,0,4.1,0c0.2,0.5-0.1,0.6-0.5,0.6c-0.3,0-0.7,0-1.1,0C175.2,45.3,175.2,46.7,175.2,48.3z"/>
	<path fill="#FFFFFF" d="M108.1,43.2c0.3,0,0.5,0,0.8,0c0,1.4,0,2.9,0,4.3c0.9,0,1.7,0,2.5,0c0.1,0.4,0.2,0.7-0.3,0.7c-1,0-2,0-3,0
		C108.1,46.6,108.1,45,108.1,43.2z"/>
	<path fill="#FFFFFF" d="M86,43.3c0.2,0,0.4,0,0.7,0c0,1.4,0,2.8,0,4.3c0.6,0,1.1,0,1.6,0c0.3,0,0.5,0,0.8,0c0.3,0,0.3,0,0.3,0.6
		c-1.1,0-2.2,0-3.4,0C86,46.6,86,45,86,43.3z"/>
	<path fill="#FFFFFF" d="M177.6,43.3c0.3,0,0.5,0,0.7,0c0,1.7,0,3.3,0,4.9c-0.1,0-0.2,0.1-0.3,0.1c-0.1,0-0.2,0-0.4,0
		C177.6,46.6,177.6,45,177.6,43.3z"/>
	<path fill="#FFFFFF" d="M161.7,48.2c-0.2,0-0.4,0-0.7,0c0-1.6,0-3.3,0-4.9c0.2,0,0.4,0,0.7-0.1C161.7,44.9,161.7,46.6,161.7,48.2z"
		/>
	<path fill="#FFFFFF" d="M113.1,48.3c-0.2,0-0.4,0-0.6,0c-0.2-0.6-0.2-3.6-0.1-5c0.2,0,0.4,0,0.6-0.1
		C113.2,43.9,113.3,47,113.1,48.3z"/>
</g>
</svg>
