<?xml version="1.0" encoding="utf-8"?>
<!-- Generator: Adobe Illustrator 18.0.0, SVG Export Plug-In . SVG Version: 6.00 Build 0)  -->
<!DOCTYPE svg PUBLIC "-//W3C//DTD SVG 1.1//EN" "http://www.w3.org/Graphics/SVG/1.1/DTD/svg11.dtd">
<svg version="1.1" id="图层_1" xmlns="http://www.w3.org/2000/svg" xmlns:xlink="http://www.w3.org/1999/xlink" x="0px" y="0px"
	 viewBox="0 0 39.5 39.4" enable-background="new 0 0 39.5 39.4" xml:space="preserve">
<circle fill="#757576" cx="19.7" cy="19.7" r="19.7"/>
<g>
	<path fill="#FFFFFF" d="M30.1,16.9c0,0.3,0,0.4,0,0.6c0,2.8,0,5.5,0,8.3c0,1.4-0.8,2.1-2.1,2.1c-5.5,0-11,0-16.5,0
		c-1.3,0-2.1-0.8-2.1-2.1c0-2.8,0-5.6,0-8.4c0-0.1,0-0.3,0-0.4c2.6,1.8,5.2,3.6,7.8,5.4c0.5,0.3,1,0.6,1.5,0.8
		c1.2,0.5,2.3,0.1,3.3-0.6c2.5-1.7,4.9-3.4,7.3-5.1C29.6,17.4,29.8,17.2,30.1,16.9z"/>
	<path fill="#FFFFFF" d="M19.7,11.6c2.7,0,5.5,0,8.2,0c1.7,0,2.5,1.2,2,2.8c-0.3,0.9-0.9,1.6-1.7,2.1c-2.2,1.6-4.4,3.1-6.6,4.6
		c-0.2,0.1-0.4,0.3-0.7,0.4c-0.8,0.5-1.6,0.5-2.4,0c-1.8-1.2-3.6-2.5-5.4-3.7c-0.6-0.4-1.3-0.8-1.9-1.3c-0.6-0.6-1.2-1.2-1.6-1.9
		c-0.4-0.6-0.4-1.3-0.1-2c0.3-0.8,1-1.1,1.8-1.1C14.2,11.6,17,11.6,19.7,11.6z"/>
</g>
</svg>
